<svg width="375" height="44" viewBox="0 0 375 44" fill="none" xmlns="http://www.w3.org/2000/svg">
<rect opacity="0.35" x="336.828" y="17.834" width="21" height="10.3333" rx="2.16667" stroke="white"/>
<path opacity="0.4" d="M359.328 21V25C360.133 24.6612 360.656 23.8731 360.656 23C360.656 22.1269 360.133 21.3388 359.328 21Z" fill="white"/>
<rect x="338.328" y="19.334" width="18" height="7.33333" rx="1.33333" fill="white"/>
<path fill-rule="evenodd" clip-rule="evenodd" d="M323.667 19.6146C325.892 19.6147 328.031 20.4688 329.644 22.0004C329.765 22.1186 329.959 22.1171 330.079 21.997L331.239 20.8267C331.3 20.7658 331.334 20.6833 331.333 20.5974C331.333 20.5116 331.298 20.4295 331.237 20.3693C327.005 16.317 320.329 16.317 316.097 20.3693C316.035 20.4294 316.001 20.5115 316 20.5973C315.999 20.6832 316.033 20.7657 316.094 20.8267L317.255 21.997C317.374 22.1173 317.568 22.1188 317.69 22.0004C319.302 20.4687 321.442 19.6145 323.667 19.6146ZM323.665 23.4228C324.887 23.4228 326.066 23.8767 326.972 24.6965C327.095 24.8128 327.288 24.8103 327.407 24.6908L328.567 23.5205C328.628 23.4591 328.661 23.3758 328.661 23.2893C328.66 23.2027 328.624 23.1202 328.562 23.06C325.803 20.4956 321.53 20.4956 318.771 23.06C318.708 23.1202 318.673 23.2028 318.672 23.2893C318.671 23.3759 318.705 23.4592 318.766 23.5205L319.925 24.6908C320.045 24.8103 320.238 24.8128 320.36 24.6965C321.266 23.8772 322.444 23.4233 323.665 23.4228ZM325.988 25.9842C325.99 26.071 325.956 26.1547 325.894 26.2155L323.889 28.2374C323.83 28.2969 323.75 28.3303 323.666 28.3303C323.583 28.3303 323.502 28.2969 323.444 28.2374L321.438 26.2155C321.376 26.1546 321.342 26.0709 321.344 25.9841C321.346 25.8974 321.383 25.8152 321.448 25.757C322.728 24.6747 324.604 24.6747 325.885 25.757C325.949 25.8152 325.987 25.8974 325.988 25.9842Z" fill="white"/>
<path fill-rule="evenodd" clip-rule="evenodd" d="M310 17.666H309C308.448 17.666 308 18.1137 308 18.666V27.3327C308 27.885 308.448 28.3327 309 28.3327H310C310.552 28.3327 311 27.885 311 27.3327V18.666C311 18.1137 310.552 17.666 310 17.666ZM304.328 20H305.328C305.88 20 306.328 20.4477 306.328 21V27.3333C306.328 27.8856 305.88 28.3333 305.328 28.3333H304.328C303.776 28.3333 303.328 27.8856 303.328 27.3333V21C303.328 20.4477 303.776 20 304.328 20ZM300.672 22.332H299.672C299.12 22.332 298.672 22.7797 298.672 23.332V27.332C298.672 27.8843 299.12 28.332 299.672 28.332H300.672C301.224 28.332 301.672 27.8843 301.672 27.332V23.332C301.672 22.7797 301.224 22.332 300.672 22.332ZM296 24.332H295C294.448 24.332 294 24.7797 294 25.332V27.332C294 27.8843 294.448 28.332 295 28.332H296C296.552 28.332 297 27.8843 297 27.332V25.332C297 24.7797 296.552 24.332 296 24.332Z" fill="white"/>
<path d="M22.605 18.22L18.435 28H17.055L21.285 18.355H15.495V17.185H22.605V18.22ZM24.5385 28.09C24.2785 28.09 24.0585 28 23.8785 27.82C23.6985 27.64 23.6085 27.42 23.6085 27.16C23.6085 26.9 23.6985 26.68 23.8785 26.5C24.0585 26.32 24.2785 26.23 24.5385 26.23C24.7885 26.23 24.9985 26.32 25.1685 26.5C25.3485 26.68 25.4385 26.9 25.4385 27.16C25.4385 27.42 25.3485 27.64 25.1685 27.82C24.9985 28 24.7885 28.09 24.5385 28.09ZM24.5385 21.67C24.2785 21.67 24.0585 21.58 23.8785 21.4C23.6985 21.22 23.6085 21 23.6085 20.74C23.6085 20.48 23.6985 20.26 23.8785 20.08C24.0585 19.9 24.2785 19.81 24.5385 19.81C24.7885 19.81 24.9985 19.9 25.1685 20.08C25.3485 20.26 25.4385 20.48 25.4385 20.74C25.4385 21 25.3485 21.22 25.1685 21.4C24.9985 21.58 24.7885 21.67 24.5385 21.67ZM26.5018 25.585V24.55L31.7668 17.26H33.4018V24.4H34.9018V25.585H33.4018V28H32.0518V25.585H26.5018ZM32.1118 18.685L28.0768 24.4H32.1118V18.685ZM42.7004 18.22L38.5304 28H37.1504L41.3804 18.355H35.5904V17.185H42.7004V18.22Z" fill="white"/>
</svg>
