<svg width="51" height="51" viewBox="0 0 51 51" fill="none" xmlns="http://www.w3.org/2000/svg">
<circle cx="25.4193" cy="25.4252" r="24.6849" fill="#F9F9F9"/>
<path d="M31.2749 24.4658V31.2845C31.2749 33.4549 29.5144 35.2061 27.3533 35.2061H20.4881C18.327 35.2061 16.5664 33.4456 16.5664 31.2845V24.4658C16.5664 22.2954 18.327 20.5442 20.4881 20.5442H27.3533C29.5144 20.5442 31.2749 22.3047 31.2749 24.4658Z" stroke="#767C83" stroke-width="1.5" stroke-linecap="round" stroke-linejoin="round"/>
<path d="M19.8262 18.439V16.8088" stroke="#767C83" stroke-width="1.5" stroke-linecap="round" stroke-linejoin="round"/>
<path d="M23.5527 18.439V16.8088" stroke="#767C83" stroke-width="1.5" stroke-linecap="round" stroke-linejoin="round"/>
<path d="M27.2783 18.439V16.8088" stroke="#767C83" stroke-width="1.5" stroke-linecap="round" stroke-linejoin="round"/>
<path d="M35.1951 26.9717C35.1951 29.1328 33.4345 30.8933 31.2734 30.8933V23.05C33.4345 23.05 35.1951 24.8013 35.1951 26.9717Z" stroke="#767C83" stroke-width="1.5" stroke-linecap="round" stroke-linejoin="round"/>
<path d="M16.5664 25.8909H31.0141" stroke="#767C83" stroke-width="1.5" stroke-linecap="round" stroke-linejoin="round"/>
</svg>
