<svg width="50" height="50" viewBox="0 0 50 50" fill="none" xmlns="http://www.w3.org/2000/svg">
<circle cx="25.0521" cy="25.056" r="24.6849" fill="#F9F9F9"/>
<path d="M18.4426 29.9466C18.219 32.6387 20.2497 34.837 22.9511 34.837H27.413C30.4497 34.837 32.5363 32.3872 32.0333 29.3877C31.5023 26.2392 28.4656 23.6589 25.2706 23.6589C21.8053 23.6589 18.7314 26.4907 18.4426 29.9466Z" stroke="#767C83" stroke-width="1.5" stroke-linecap="round" stroke-linejoin="round"/>
<path d="M24.0876 21.3301C25.3737 21.3301 26.4163 20.2875 26.4163 19.0014C26.4163 17.7152 25.3737 16.6726 24.0876 16.6726C22.8014 16.6726 21.7588 17.7152 21.7588 19.0014C21.7588 20.2875 22.8014 21.3301 24.0876 21.3301Z" stroke="#767C83" stroke-width="1.5" stroke-linecap="round" stroke-linejoin="round"/>
<path d="M30.4519 22.448C31.4808 22.448 32.3149 21.6139 32.3149 20.5849C32.3149 19.556 31.4808 18.7219 30.4519 18.7219C29.423 18.7219 28.5889 19.556 28.5889 20.5849C28.5889 21.6139 29.423 22.448 30.4519 22.448Z" stroke="#767C83" stroke-width="1.5" stroke-linecap="round" stroke-linejoin="round"/>
<path d="M33.8973 26.1739C34.6689 26.1739 35.2945 25.5483 35.2945 24.7767C35.2945 24.005 34.6689 23.3794 33.8973 23.3794C33.1256 23.3794 32.5 24.005 32.5 24.7767C32.5 25.5483 33.1256 26.1739 33.8973 26.1739Z" stroke="#767C83" stroke-width="1.5" stroke-linecap="round" stroke-linejoin="round"/>
<path d="M18.0329 24.311C19.0618 24.311 19.8959 23.4769 19.8959 22.448C19.8959 21.4191 19.0618 20.585 18.0329 20.585C17.004 20.585 16.1699 21.4191 16.1699 22.448C16.1699 23.4769 17.004 24.311 18.0329 24.311Z" stroke="#767C83" stroke-width="1.5" stroke-linecap="round" stroke-linejoin="round"/>
</svg>
