<svg width="50" height="51" viewBox="0 0 50 51" fill="none" xmlns="http://www.w3.org/2000/svg">
<circle cx="24.6849" cy="25.4252" r="24.6849" fill="#F9F9F9"/>
<path d="M28.416 17.3491H21.8768C19.5573 17.3491 19.045 18.5042 18.7469 19.9201L17.6943 24.9595H32.5984L31.5458 19.9201C31.2478 18.5042 30.7354 17.3491 28.416 17.3491Z" stroke="#767C83" stroke-width="1.5" stroke-linecap="round" stroke-linejoin="round"/>
<path d="M34.4527 33.1754C34.5551 34.2652 33.6795 35.206 32.5617 35.206H30.8105C29.8045 35.206 29.6647 34.7776 29.4877 34.2466L29.3014 33.6877C29.0406 32.9239 28.873 32.4115 27.5316 32.4115H22.7623C21.4209 32.4115 21.2253 32.9891 20.9924 33.6877L20.8061 34.2466C20.6291 34.7776 20.4894 35.206 19.4834 35.206H17.7321C16.6143 35.206 15.7387 34.2652 15.8412 33.1754L16.3628 27.5025C16.4932 26.1052 16.7634 24.9595 19.2039 24.9595H31.0899C33.5305 24.9595 33.8006 26.1052 33.931 27.5025L34.4527 33.1754Z" stroke="#767C83" stroke-width="1.5" stroke-linecap="round" stroke-linejoin="round"/>
<path d="M17.6952 22.165H16.7637" stroke="#767C83" stroke-width="1.5" stroke-linecap="round" stroke-linejoin="round"/>
<path d="M33.5301 22.165H32.5986" stroke="#767C83" stroke-width="1.5" stroke-linecap="round" stroke-linejoin="round"/>
<path d="M25.1465 17.5073V19.3703" stroke="#767C83" stroke-width="1.5" stroke-linecap="round" stroke-linejoin="round"/>
<path d="M23.75 19.3704H26.5445" stroke="#767C83" stroke-width="1.5" stroke-linecap="round" stroke-linejoin="round"/>
<path d="M19.5576 28.6855H22.3521" stroke="#767C83" stroke-width="1.5" stroke-linecap="round" stroke-linejoin="round"/>
<path d="M27.9414 28.6855H30.7359" stroke="#767C83" stroke-width="1.5" stroke-linecap="round" stroke-linejoin="round"/>
</svg>
