<svg width="50" height="51" viewBox="0 0 50 51" fill="none" xmlns="http://www.w3.org/2000/svg">
<circle cx="24.7865" cy="25.4252" r="24.6849" fill="#F9F9F9"/>
<g clip-path="url(#clip0_797_11999)">
<path d="M20.3071 35.524H24.1828M24.1828 35.524H28.0586H24.221V30.0445L29.2531 24.2786M24.1828 35.524V30.0445L19.1857 24.2786M29.2531 24.2786L32.469 20.5938H27.3331H15.9922L19.1857 24.2786M29.2531 24.2786H19.1857" stroke="#767C83" stroke-width="1.5"/>
<path d="M26.7578 20.5953C26.7578 19.7546 27.0012 18.9319 27.4587 18.2266C27.9161 17.5213 28.568 16.9635 29.3356 16.6206C30.1032 16.2778 30.9537 16.1645 31.7842 16.2946C32.6147 16.4246 33.3899 16.7924 34.016 17.3534C34.642 17.9144 35.0923 18.6447 35.3123 19.4561C35.5323 20.2675 35.5126 21.1252 35.2557 21.9257C34.9988 22.7261 34.5155 23.4351 33.8644 23.9668C33.2133 24.4986 32.4221 24.8305 31.5865 24.9223" stroke="#767C83" stroke-width="1.5" stroke-linejoin="round"/>
</g>
<defs>
<clipPath id="clip0_797_11999">
<rect width="22.3562" height="22.3562" fill="white" transform="translate(14.0703 14.7129)"/>
</clipPath>
</defs>
</svg>
