<svg width="50" height="50" viewBox="0 0 50 50" fill="none" xmlns="http://www.w3.org/2000/svg">
<circle cx="24.6849" cy="25.056" r="24.6849" fill="#F9F9F9"/>
<g clip-path="url(#clip0_797_11979)">
<path d="M17.8396 20.4818H22.612C23.3854 20.4818 23.049 19.4499 23.049 19.4499L21.3639 13.792C21.2022 13.2496 20.6911 13.5018 20.4288 13.6757C18.6029 15.0377 17.3405 17.0945 17.0519 19.4478C17.0495 19.4695 16.9433 20.4818 17.8396 20.4818ZM20.1696 15.8139C20.3474 15.6857 20.6775 15.5142 20.7952 15.9075L21.5452 18.4261C21.6964 18.9336 21.3307 19.0195 21.1424 19.0321H19.2715C18.7105 19.0321 18.6497 18.6842 18.6588 18.4882C18.8017 17.4134 19.3592 16.4689 20.1696 15.8139Z" fill="#767C83"/>
<path d="M33.3034 22.912C33.2992 21.9088 32.3305 21.8183 32.0542 21.8145H17.8431C17.055 21.8145 17.026 22.4352 17.0417 22.6661C17.4843 26.6165 20.9628 29.6936 25.1916 29.6936C29.3313 29.6936 32.7466 26.7419 33.3034 22.912ZM30.9756 24.9303C30.221 26.0516 28.9076 27.4419 26.8411 27.9579C26.3789 28.093 25.8892 28.1664 25.3816 28.1664C25.2821 28.1664 25.1853 28.1577 25.0871 28.1524C25.0851 28.1542 25.084 28.1563 25.0816 28.158C22.6304 28.1943 20.8534 26.7101 19.7542 25.3806C19.6798 25.2797 19.3633 24.8056 19.0269 24.1053C18.9535 23.9456 18.7314 23.3424 19.5592 23.3424H20.3609H20.8157H29.0424H30.403H30.614C30.7695 23.3434 31.6962 23.3909 31.3046 24.3543C31.2609 24.4504 31.2131 24.5478 31.1579 24.6453C31.1034 24.7347 31.0475 24.8245 30.9853 24.9174C30.9815 24.9213 30.9787 24.9258 30.9756 24.9303Z" fill="#767C83"/>
<path d="M19.582 30.5371C18.1516 30.5371 16.9922 31.6968 16.9922 33.1276C16.9922 34.5581 18.1516 35.7178 19.582 35.7178C21.0125 35.7178 22.1718 34.5581 22.1718 33.1276C22.1718 31.6972 21.0128 30.5371 19.582 30.5371ZM19.582 34.2629C18.955 34.2629 18.4467 33.7543 18.4467 33.1276C18.4467 32.5006 18.955 31.992 19.582 31.992C20.2094 31.992 20.7176 32.5006 20.7176 33.1276C20.7176 33.7543 20.2094 34.2629 19.582 34.2629Z" fill="#767C83"/>
<path d="M30.7148 30.5371C29.284 30.5371 28.125 31.6968 28.125 33.1276C28.125 34.5581 29.284 35.7178 30.7148 35.7178C32.1449 35.7178 33.3046 34.5581 33.3046 33.1276C33.3046 31.6972 32.1446 30.5371 30.7148 30.5371ZM30.7148 34.2629C30.0871 34.2629 29.5788 33.7543 29.5788 33.1276C29.5788 32.5006 30.0871 31.992 30.7148 31.992C31.3418 31.992 31.8501 32.5006 31.8501 33.1276C31.8501 33.7543 31.3418 34.2629 30.7148 34.2629Z" fill="#767C83"/>
</g>
<defs>
<clipPath id="clip0_797_11979">
<rect width="22.3562" height="22.3562" fill="white" transform="translate(13.9688 13.4121)"/>
</clipPath>
</defs>
</svg>
