<svg width="51" height="50" viewBox="0 0 51 50" fill="none" xmlns="http://www.w3.org/2000/svg">
<circle cx="25.4193" cy="25.056" r="24.6849" fill="#F9F9F9"/>
<path d="M21.7677 36.5166H22.5177V35.7666V30.3686H25.9087C28.1195 30.3686 29.9809 29.6262 31.4284 28.1202C32.892 26.6177 33.6086 24.7054 33.6086 22.446C33.6086 20.1867 32.8921 18.2744 31.4285 16.772C29.981 15.2659 28.1195 14.5234 25.9087 14.5234H18.4375H17.6875V15.2734V35.7666V36.5166H18.4375H21.7677ZM27.8752 24.9254L27.8747 24.9259C27.3088 25.5444 26.6054 25.8532 25.706 25.8532H22.5177V19.0389H25.706C26.599 19.0389 27.3007 19.3525 27.8685 19.9886L27.8749 19.9958L27.8815 20.0028C28.4694 20.6284 28.7784 21.4233 28.7784 22.446C28.7784 23.4686 28.4693 24.2773 27.8752 24.9254Z" stroke="#767C83" stroke-width="1.5"/>
</svg>
