<svg width="50" height="51" viewBox="0 0 50 51" fill="none" xmlns="http://www.w3.org/2000/svg">
<circle cx="25.0521" cy="25.4252" r="24.6849" fill="#F9F9F9"/>
<path d="M18.0625 20.3016C18.0625 19.5299 18.6881 18.9043 19.4598 18.9043H31.5693C32.3411 18.9043 32.9666 19.5299 32.9666 20.3016V25.4248H18.0625V20.3016Z" stroke="#767C83" stroke-width="1.5" stroke-linecap="round" stroke-linejoin="round"/>
<path d="M17.125 31.0156V32.8786" stroke="#767C83" stroke-width="1.5" stroke-linecap="round" stroke-linejoin="round"/>
<path d="M33.8984 31.0156V32.8786" stroke="#767C83" stroke-width="1.5" stroke-linecap="round" stroke-linejoin="round"/>
<path d="M23.6527 23.0977H20.8582C20.0865 23.0977 19.4609 23.7232 19.4609 24.4949V25.4264H25.05V24.4949C25.05 23.7232 24.4244 23.0977 23.6527 23.0977Z" stroke="#767C83" stroke-width="1.5" stroke-linecap="round" stroke-linejoin="round"/>
<path d="M30.1762 23.0977H27.3816C26.6099 23.0977 25.9844 23.7232 25.9844 24.4949V25.4264H31.5734V24.4949C31.5734 23.7232 30.9479 23.0977 30.1762 23.0977Z" stroke="#767C83" stroke-width="1.5" stroke-linecap="round" stroke-linejoin="round"/>
<path d="M16.2031 26.823C16.2031 26.0513 16.8287 25.4258 17.6004 25.4258H33.436C34.2077 25.4258 34.8333 26.0513 34.8333 26.823V31.0148H16.2031V26.823Z" stroke="#767C83" stroke-width="1.5" stroke-linecap="round" stroke-linejoin="round"/>
</svg>
