<svg width="50" height="50" viewBox="0 0 50 50" fill="none" xmlns="http://www.w3.org/2000/svg">
<circle cx="24.7865" cy="24.6849" r="24.6849" fill="#F9F9F9"/>
<mask id="mask0_797_11967" style="mask-type:luminance" maskUnits="userSpaceOnUse" x="15" y="26" width="16" height="8">
<path fill-rule="evenodd" clip-rule="evenodd" d="M15.9336 26.9736H30.0774V33.587H15.9336V26.9736Z" fill="white"/>
</mask>
<g mask="url(#mask0_797_11967)">
<path fill-rule="evenodd" clip-rule="evenodd" d="M23.0056 28.3709C20.4169 28.3709 17.3309 28.7034 17.3309 30.2917C17.3309 31.5511 19.2404 32.1901 23.0056 32.1901C26.7707 32.1901 28.6803 31.5445 28.6803 30.273C28.6803 29.0108 26.7707 28.3709 23.0056 28.3709ZM23.0056 33.5873C21.0718 33.5873 15.9336 33.5873 15.9336 30.2917C15.9336 26.9736 21.2562 26.9736 23.0056 26.9736C26.0414 26.9736 30.0776 27.3155 30.0776 30.273C30.0776 33.5873 24.755 33.5873 23.0056 33.5873Z" fill="#767C83"/>
</g>
<path fill-rule="evenodd" clip-rule="evenodd" d="M23.0049 17.233C21.1373 17.233 19.618 18.7522 19.618 20.619C19.618 22.4857 21.1373 24.005 23.0049 24.005H23.0338C23.9318 24.0013 24.7776 23.6482 25.4119 23.0083C26.0472 22.3702 26.3947 21.5216 26.3909 20.6218C26.3909 18.7522 24.8717 17.233 23.0049 17.233ZM23.0049 25.4023C20.3669 25.4023 18.2207 23.2561 18.2207 20.619C18.2207 17.9819 20.3669 15.8357 23.0049 15.8357C25.642 15.8357 27.7882 17.9819 27.7882 20.619C27.7938 21.8896 27.301 23.0893 26.4031 23.9929C25.507 24.8974 24.31 25.3976 23.0366 25.4023H23.0049Z" fill="#767C83"/>
<path fill-rule="evenodd" clip-rule="evenodd" d="M29.4245 24.3421C29.0817 24.3421 28.7827 24.0897 28.7333 23.7404C28.6802 23.3585 28.9457 23.0045 29.3276 22.9514C30.4901 22.7884 31.3676 21.7796 31.3695 20.604C31.3695 19.4359 30.533 18.4504 29.3826 18.2622C29.0016 18.1989 28.7436 17.8402 28.806 17.4592C28.8684 17.0783 29.2289 16.8221 29.608 16.8826C31.4384 17.1826 32.7667 18.7484 32.7667 20.6049C32.763 22.4726 31.3686 24.0767 29.5223 24.3356C29.4897 24.3403 29.4571 24.3421 29.4245 24.3421Z" fill="#767C83"/>
<mask id="mask1_797_11967" style="mask-type:luminance" maskUnits="userSpaceOnUse" x="30" y="26" width="5" height="6">
<path fill-rule="evenodd" clip-rule="evenodd" d="M30.6934 26.5325H34.544V31.1691H30.6934V26.5325Z" fill="white"/>
</mask>
<g mask="url(#mask1_797_11967)">
<path fill-rule="evenodd" clip-rule="evenodd" d="M32.6032 31.1691C32.321 31.1691 32.0555 30.9967 31.9502 30.7182C31.8133 30.3577 31.9949 29.9535 32.3554 29.8175C33.1472 29.5175 33.1472 29.1514 33.1472 28.9949C33.1472 28.4668 32.5222 28.1053 31.2898 27.9218C30.9079 27.8641 30.6442 27.5083 30.7011 27.1273C30.7588 26.7453 31.1212 26.4892 31.4956 26.5386C34.0163 26.9158 34.5445 28.083 34.5445 28.9949C34.5445 29.674 34.251 30.5934 32.851 31.1234C32.7699 31.1542 32.6861 31.1691 32.6032 31.1691Z" fill="#767C83"/>
</g>
</svg>
