<svg width="51" height="50" viewBox="0 0 51 50" fill="none" xmlns="http://www.w3.org/2000/svg">
<circle cx="25.4193" cy="24.6849" r="24.6849" fill="#F9F9F9"/>
<path d="M28.502 30.2745C27.8816 32.685 25.6933 34.4662 23.089 34.4662C20.0023 34.4662 17.5 31.964 17.5 28.8772C17.5 26.6216 18.8362 24.678 20.7603 23.7949" stroke="#767C83" stroke-width="1.5" stroke-linecap="round" stroke-linejoin="round"/>
<path d="M23.0859 19.5625L24.0174 27.9461L31.0037 27.4803L32.401 32.6036H33.7983" stroke="#767C83" stroke-width="1.5" stroke-linecap="round" stroke-linejoin="round"/>
<path d="M24.9448 17.699C24.9448 18.7278 24.1107 19.562 23.0818 19.562C22.0529 19.562 21.2188 18.7278 21.2188 17.699C21.2188 16.67 22.0529 15.8359 23.0818 15.8359C24.1107 15.8359 24.9448 16.67 24.9448 17.699Z" stroke="#767C83" stroke-width="1.5" stroke-linecap="round" stroke-linejoin="round"/>
<path d="M26.3438 23.2891H30.0698" stroke="#767C83" stroke-width="1.5" stroke-linecap="round" stroke-linejoin="round"/>
</svg>
