<svg width="50" height="50" viewBox="0 0 50 50" fill="none" xmlns="http://www.w3.org/2000/svg">
<circle cx="24.7865" cy="25.056" r="24.6849" fill="#F9F9F9"/>
<path d="M29.8123 34.8369H20.6836C19.1 34.8369 17.7959 33.5421 17.7959 31.9492V19.0945C17.7959 17.5109 19.0907 16.2068 20.6836 16.2068H29.8123C31.3959 16.2068 32.7 17.5016 32.7 19.0945V31.9492C32.7 33.5421 31.4052 34.8369 29.8123 34.8369Z" stroke="#767C83" stroke-width="1.5" stroke-linecap="round" stroke-linejoin="round"/>
<path d="M31.3027 26.4534H19.1932C18.42 26.4534 17.7959 25.8293 17.7959 25.0562V23.1932C17.7959 22.42 18.42 21.7959 19.1932 21.7959H31.3027C32.0759 21.7959 32.7 22.42 32.7 23.1932V25.0562C32.7 25.8293 32.0759 26.4534 31.3027 26.4534Z" stroke="#767C83" stroke-width="1.5" stroke-linecap="round" stroke-linejoin="round"/>
<path d="M21.9831 30.8315H21.9915" stroke="#767C83" stroke-width="2.5" stroke-linecap="round" stroke-linejoin="round"/>
<path d="M28.5036 30.8315H28.512" stroke="#767C83" stroke-width="2.5" stroke-linecap="round" stroke-linejoin="round"/>
<path d="M22.9199 19.0012H27.5775" stroke="#767C83" stroke-width="1.5" stroke-linecap="round" stroke-linejoin="round"/>
</svg>
