<svg width="50" height="50" viewBox="0 0 50 50" fill="none" xmlns="http://www.w3.org/2000/svg">
<circle cx="25.0521" cy="24.6849" r="24.6849" fill="#F9F9F9"/>
<path d="M20.6215 34.2334H17.8269C17.0585 34.2334 16.4297 33.6046 16.4297 32.8361V25.8498C16.4297 24.6621 17.3379 23.7539 18.5256 23.7539C19.7132 23.7539 20.6215 24.6621 20.6215 25.8498V34.2334Z" stroke="#767C83" stroke-width="1.5" stroke-miterlimit="10" stroke-linecap="round" stroke-linejoin="round"/>
<path d="M33.2008 34.2334H30.4062V25.8498C30.4062 24.6621 31.3145 23.7539 32.5021 23.7539C33.6898 23.7539 34.598 24.6621 34.598 25.8498V32.8361C34.598 33.6046 33.9693 34.2334 33.2008 34.2334Z" stroke="#767C83" stroke-width="1.5" stroke-miterlimit="10" stroke-linecap="round" stroke-linejoin="round"/>
<path d="M30.4058 27.2461H20.625V34.2324H30.4058V27.2461Z" stroke="#767C83" stroke-width="1.5" stroke-miterlimit="10" stroke-linecap="round" stroke-linejoin="round"/>
<path d="M18.5312 23.7539V19.4224C18.5312 17.9552 19.7189 16.7676 21.186 16.7676H29.7792C31.3162 16.7676 32.5039 17.9552 32.5039 19.4224V23.7539" stroke="#767C83" stroke-width="1.5" stroke-miterlimit="10" stroke-linecap="round" stroke-linejoin="round"/>
</svg>
