<svg width="40" height="40" viewBox="0 0 40 40" fill="none" xmlns="http://www.w3.org/2000/svg">
<circle cx="20" cy="20" r="20" fill="#F9F9F9"/>
<path fill-rule="evenodd" clip-rule="evenodd" d="M19.8328 21.0986C19.331 21.0986 18.8308 20.9329 18.4123 20.6014L15.0485 17.8894C14.8063 17.6944 14.7688 17.3396 14.963 17.0981C15.1588 16.8574 15.5128 16.8191 15.7543 17.0134L19.115 19.7224C19.5373 20.0569 20.132 20.0569 20.5573 19.7194L23.8843 17.0149C24.1258 16.8176 24.4798 16.8551 24.6763 17.0966C24.872 17.3374 24.8353 17.6914 24.5945 17.8879L21.2615 20.5969C20.84 20.9314 20.336 21.0986 19.8328 21.0986Z" fill="#767C83"/>
<mask id="mask0_797_12038" style="mask-type:luminance" maskUnits="userSpaceOnUse" x="11" y="12" width="17" height="16">
<path fill-rule="evenodd" clip-rule="evenodd" d="M11.75 12.5H27.8749V27.125H11.75V12.5Z" fill="white"/>
</mask>
<g mask="url(#mask0_797_12038)">
<path fill-rule="evenodd" clip-rule="evenodd" d="M16.1293 26H23.4943C23.4958 25.9985 23.5017 26 23.5063 26C24.362 26 25.121 25.694 25.703 25.1128C26.3787 24.44 26.75 23.4732 26.75 22.391V17.24C26.75 15.1453 25.3805 13.625 23.4943 13.625H16.1308C14.2445 13.625 12.875 15.1453 12.875 17.24V22.391C12.875 23.4732 13.247 24.44 13.922 25.1128C14.504 25.694 15.2637 26 16.1187 26H16.1293ZM16.1165 27.125C14.9592 27.125 13.9258 26.705 13.1278 25.91C12.239 25.0235 11.75 23.774 11.75 22.391V17.24C11.75 14.5378 13.6333 12.5 16.1308 12.5H23.4943C25.9918 12.5 27.875 14.5378 27.875 17.24V22.391C27.875 23.774 27.386 25.0235 26.4972 25.91C25.7 26.7042 24.6658 27.125 23.5063 27.125H23.4943H16.1308H16.1165Z" fill="#767C83"/>
</g>
</svg>
