<svg width="40" height="40" viewBox="0 0 40 40" fill="none" xmlns="http://www.w3.org/2000/svg">
<circle cx="20" cy="20" r="20" fill="#F9F9F9"/>
<mask id="mask0_797_12024" style="mask-type:luminance" maskUnits="userSpaceOnUse" x="14" y="21" width="12" height="7">
<path fill-rule="evenodd" clip-rule="evenodd" d="M14 21.8721H25.8799V27.4026H14V21.8721Z" fill="white"/>
</mask>
<g mask="url(#mask0_797_12024)">
<path fill-rule="evenodd" clip-rule="evenodd" d="M19.9407 22.9971C16.745 22.9971 15.125 23.5461 15.125 24.6298C15.125 25.7233 16.745 26.2776 19.9407 26.2776C23.1357 26.2776 24.755 25.7286 24.755 24.6448C24.755 23.5513 23.1357 22.9971 19.9407 22.9971ZM19.9408 27.4026C18.4715 27.4026 14 27.4026 14 24.6298C14 22.1578 17.3907 21.8721 19.9408 21.8721C21.41 21.8721 25.88 21.8721 25.88 24.6448C25.88 27.1168 22.49 27.4026 19.9408 27.4026Z" fill="#767C83"/>
</g>
<mask id="mask1_797_12024" style="mask-type:luminance" maskUnits="userSpaceOnUse" x="15" y="12" width="9" height="9">
<path fill-rule="evenodd" clip-rule="evenodd" d="M15.957 12.5H23.9221V20.464H15.957V12.5Z" fill="white"/>
</mask>
<g mask="url(#mask1_797_12024)">
<path fill-rule="evenodd" clip-rule="evenodd" d="M19.9403 13.5708C18.3346 13.5708 17.0281 14.8765 17.0281 16.4823C17.0228 18.0828 18.3196 19.3878 19.9186 19.3938L19.9403 19.9293V19.3938C21.5453 19.3938 22.8511 18.0873 22.8511 16.4823C22.8511 14.8765 21.5453 13.5708 19.9403 13.5708ZM19.9403 20.464H19.9163C17.7248 20.4573 15.9496 18.67 15.9571 16.48C15.9571 14.2863 17.7436 12.4998 19.9403 12.4998C22.1363 12.4998 23.9221 14.2863 23.9221 16.4823C23.9221 18.6783 22.1363 20.464 19.9403 20.464Z" fill="#767C83"/>
</g>
</svg>
