<svg width="40" height="40" viewBox="0 0 40 40" fill="none" xmlns="http://www.w3.org/2000/svg">
<circle cx="20" cy="20" r="20" fill="#F9F9F9"/>
<mask id="mask0_797_12031" style="mask-type:luminance" maskUnits="userSpaceOnUse" x="12" y="12" width="16" height="16">
<path fill-rule="evenodd" clip-rule="evenodd" d="M12.5 12.5002H27.8747V27.8749H12.5V12.5002Z" fill="white"/>
</mask>
<g mask="url(#mask0_797_12031)">
<path fill-rule="evenodd" clip-rule="evenodd" d="M14.2693 14.7956C14.2708 14.7956 14.2333 14.8346 14.1861 14.8811C14.0046 15.0574 13.6288 15.4241 13.6251 16.1914C13.6191 17.2646 14.3248 19.2574 17.7231 22.6549C21.1056 26.0359 23.0953 26.7499 24.1708 26.7499H24.1866C24.9538 26.7461 25.3198 26.3696 25.4968 26.1889C25.5508 26.1334 25.5943 26.0929 25.6251 26.0674C26.3721 25.3159 26.7546 24.7564 26.7508 24.3979C26.7456 24.0319 26.2903 23.5991 25.6611 23.0006C25.4608 22.8101 25.2433 22.6031 25.0138 22.3736C24.4191 21.7804 24.1243 21.8816 23.4763 22.1096C22.5801 22.4239 21.3501 22.8514 19.4391 20.9396C17.5251 19.0271 17.9533 17.7986 18.2668 16.9024C18.4933 16.2544 18.5968 15.9589 18.0013 15.3634C17.7681 15.1309 17.5588 14.9104 17.3661 14.7079C16.7713 14.0824 16.3423 13.6301 15.9786 13.6249H15.9726C15.6133 13.6249 15.0553 14.0089 14.2656 14.7986C14.2678 14.7964 14.2686 14.7956 14.2693 14.7956ZM24.1716 27.8749C22.3026 27.8749 19.8658 26.3869 16.9281 23.4506C13.9791 20.5024 12.4888 18.0581 12.5001 16.1854C12.5068 14.9479 13.1556 14.3141 13.3993 14.0764C13.4121 14.0606 13.4556 14.0179 13.4706 14.0029C14.5461 12.9266 15.2713 12.4916 15.9928 12.4999C16.8306 12.5111 17.4268 13.1381 18.1813 13.9324C18.3681 14.1289 18.5706 14.3426 18.7963 14.5676C19.8913 15.6626 19.5793 16.5559 19.3288 17.2729C19.0558 18.0551 18.8196 18.7301 20.2341 20.1446C21.6501 21.5591 22.3251 21.3229 23.1043 21.0476C23.8221 20.7971 24.7131 20.4836 25.8096 21.5786C26.0316 21.8006 26.2423 22.0009 26.4366 22.1861C27.2346 22.9444 27.8646 23.5436 27.8751 24.3836C27.8841 25.0999 27.4491 25.8296 26.3751 26.9044L25.8996 26.5819L26.3016 26.9749C26.0638 27.2186 25.4308 27.8681 24.1926 27.8749H24.1716Z" fill="#767C83"/>
</g>
</svg>
