<svg width="40" height="40" viewBox="0 0 40 40" fill="none" xmlns="http://www.w3.org/2000/svg">
<circle cx="20" cy="20" r="20" fill="#F9F9F9"/>
<path d="M20 28.0625C15.5525 28.0625 11.9375 24.4475 11.9375 20C11.9375 15.5525 15.5525 11.9375 20 11.9375C24.4475 11.9375 28.0625 15.5525 28.0625 20C28.0625 24.4475 24.4475 28.0625 20 28.0625ZM20 13.0625C16.175 13.0625 13.0625 16.175 13.0625 20C13.0625 23.825 16.175 26.9375 20 26.9375C23.825 26.9375 26.9375 23.825 26.9375 20C26.9375 16.175 23.825 13.0625 20 13.0625Z" fill="#767C83"/>
<path d="M17.7497 27.3125H16.9997C16.6922 27.3125 16.4372 27.0575 16.4372 26.75C16.4372 26.4425 16.6772 26.195 16.9847 26.1875C15.8072 22.1675 15.8072 17.8325 16.9847 13.8125C16.6772 13.805 16.4372 13.5575 16.4372 13.25C16.4372 12.9425 16.6922 12.6875 16.9997 12.6875H17.7497C17.9297 12.6875 18.1022 12.7775 18.2072 12.92C18.3122 13.07 18.3422 13.2575 18.2822 13.43C16.8722 17.6675 16.8722 22.3325 18.2822 26.5775C18.3422 26.75 18.3122 26.9375 18.2072 27.0875C18.1022 27.2225 17.9297 27.3125 17.7497 27.3125Z" fill="#767C83"/>
<path d="M22.2498 27.3125C22.1898 27.3125 22.1298 27.305 22.0698 27.2825C21.7773 27.185 21.6123 26.8625 21.7173 26.57C23.1273 22.3325 23.1273 17.6675 21.7173 13.4225C21.6198 13.13 21.7773 12.8075 22.0698 12.71C22.3698 12.6125 22.6848 12.77 22.7823 13.0625C24.2748 17.5325 24.2748 22.4525 22.7823 26.915C22.7073 27.1625 22.4823 27.3125 22.2498 27.3125Z" fill="#767C83"/>
<path d="M20 23.9001C17.9075 23.9001 15.8225 23.6076 13.8125 23.0151C13.805 23.3151 13.5575 23.5626 13.25 23.5626C12.9425 23.5626 12.6875 23.3076 12.6875 23.0001V22.2501C12.6875 22.0701 12.7775 21.8976 12.92 21.7926C13.07 21.6876 13.2575 21.6576 13.43 21.7176C17.6675 23.1276 22.34 23.1276 26.5775 21.7176C26.75 21.6576 26.9375 21.6876 27.0875 21.7926C27.2375 21.8976 27.32 22.0701 27.32 22.2501V23.0001C27.32 23.3076 27.065 23.5626 26.7575 23.5626C26.45 23.5626 26.2025 23.3226 26.195 23.0151C24.1775 23.6076 22.0925 23.9001 20 23.9001Z" fill="#767C83"/>
<path d="M26.7498 18.3125C26.6898 18.3125 26.6298 18.305 26.5698 18.2825C22.3323 16.8725 17.6598 16.8725 13.4223 18.2825C13.1223 18.38 12.8073 18.2225 12.7098 17.93C12.6198 17.63 12.7773 17.315 13.0698 17.2175C17.5398 15.725 22.4598 15.725 26.9223 17.2175C27.2148 17.315 27.3798 17.6375 27.2748 17.93C27.2073 18.1625 26.9823 18.3125 26.7498 18.3125Z" fill="#767C83"/>
</svg>
