<svg width="44" height="44" viewBox="0 0 44 44" fill="none" xmlns="http://www.w3.org/2000/svg">
<rect width="44" height="44" rx="4" fill="#F9F9F9"/>
<path fill-rule="evenodd" clip-rule="evenodd" d="M22.251 18.5C21.286 18.5 20.501 19.285 20.501 20.251C20.501 21.216 21.286 22 22.251 22C23.216 22 24.001 21.216 24.001 20.251C24.001 19.285 23.216 18.5 22.251 18.5ZM22.251 23.5C20.459 23.5 19.001 22.043 19.001 20.251C19.001 18.458 20.459 17 22.251 17C24.043 17 25.501 18.458 25.501 20.251C25.501 22.043 24.043 23.5 22.251 23.5Z" fill="#767C83"/>
<mask id="mask0_797_11933" style="mask-type:luminance" maskUnits="userSpaceOnUse" x="14" y="12" width="17" height="20">
<path fill-rule="evenodd" clip-rule="evenodd" d="M14 12H30.4995V31.5H14V12Z" fill="white"/>
</mask>
<g mask="url(#mask0_797_11933)">
<path fill-rule="evenodd" clip-rule="evenodd" d="M22.249 13.5C18.527 13.5 15.499 16.557 15.499 20.313C15.499 25.092 21.123 29.748 22.249 29.996C23.375 29.747 28.999 25.091 28.999 20.313C28.999 16.557 25.971 13.5 22.249 13.5ZM22.249 31.5C20.455 31.5 13.999 25.948 13.999 20.313C13.999 15.729 17.7 12 22.249 12C26.798 12 30.499 15.729 30.499 20.313C30.499 25.948 24.043 31.5 22.249 31.5Z" fill="#767C83"/>
</g>
</svg>
