<svg width="44" height="44" viewBox="0 0 44 44" fill="none" xmlns="http://www.w3.org/2000/svg">
<rect width="44" height="44" rx="4" fill="#F9F9F9"/>
<path fill-rule="evenodd" clip-rule="evenodd" d="M22 13.5C17.313 13.5 13.5 17.313 13.5 22C13.5 26.687 17.313 30.5 22 30.5C26.687 30.5 30.5 26.687 30.5 22C30.5 17.313 26.687 13.5 22 13.5ZM22 32C16.486 32 12 27.514 12 22C12 16.486 16.486 12 22 12C27.514 12 32 16.486 32 22C32 27.514 27.514 32 22 32Z" fill="#767C83"/>
<path fill-rule="evenodd" clip-rule="evenodd" d="M25.4311 25.6925C25.3001 25.6925 25.1681 25.6585 25.0471 25.5875L21.2771 23.3385C21.0511 23.2025 20.9111 22.9575 20.9111 22.6935V17.8455C20.9111 17.4315 21.2471 17.0955 21.6611 17.0955C22.0761 17.0955 22.4111 17.4315 22.4111 17.8455V22.2675L25.8161 24.2975C26.1711 24.5105 26.2881 24.9705 26.0761 25.3265C25.9351 25.5615 25.6861 25.6925 25.4311 25.6925Z" fill="#767C83"/>
</svg>
