<svg width="44" height="44" viewBox="0 0 44 44" fill="none" xmlns="http://www.w3.org/2000/svg">
<rect width="44" height="44" rx="4" fill="#FBFBFB"/>
<path fill-rule="evenodd" clip-rule="evenodd" d="M16.25 13.5C13.5 13.5 13.5 13.708 13.5 16.25V16.275C13.5 17.382 13.5 18.182 13.771 18.52C14.036 18.848 14.823 19 16.25 19C17.677 19 18.464 18.847 18.729 18.519C19 18.182 19 17.382 19 16.274C19 13.708 19 13.5 16.25 13.5ZM16.25 20.5C14.564 20.5 13.299 20.323 12.604 19.46C12 18.711 12 17.689 12 16.275L12.75 16.25H12C12 13.38 12.181 12 16.25 12C20.319 12 20.5 13.38 20.5 16.25C20.5 17.688 20.5 18.711 19.896 19.46C19.201 20.323 17.936 20.5 16.25 20.5Z" fill="#767C83"/>
<path fill-rule="evenodd" clip-rule="evenodd" d="M27.25 13.5C24.5 13.5 24.5 13.708 24.5 16.25V16.275C24.5 17.382 24.5 18.182 24.771 18.52C25.036 18.848 25.823 19 27.25 19C28.677 19 29.464 18.847 29.729 18.519C30 18.182 30 17.382 30 16.274C30 13.708 30 13.5 27.25 13.5ZM27.25 20.5C25.564 20.5 24.299 20.323 23.604 19.46C23 18.711 23 17.689 23 16.275L23.75 16.25H23C23 13.38 23.181 12 27.25 12C31.319 12 31.5 13.38 31.5 16.25C31.5 17.688 31.5 18.711 30.896 19.46C30.201 20.323 28.936 20.5 27.25 20.5Z" fill="#767C83"/>
<path fill-rule="evenodd" clip-rule="evenodd" d="M16.25 24.5C13.5 24.5 13.5 24.708 13.5 27.25V27.275C13.5 28.382 13.5 29.182 13.771 29.52C14.036 29.848 14.823 30 16.25 30C17.677 30 18.464 29.847 18.729 29.519C19 29.182 19 28.382 19 27.274C19 24.708 19 24.5 16.25 24.5ZM16.25 31.5C14.564 31.5 13.299 31.323 12.604 30.46C12 29.711 12 28.689 12 27.275L12.75 27.25H12C12 24.38 12.181 23 16.25 23C20.319 23 20.5 24.38 20.5 27.25C20.5 28.688 20.5 29.711 19.896 30.46C19.201 31.323 17.936 31.5 16.25 31.5Z" fill="#767C83"/>
<path fill-rule="evenodd" clip-rule="evenodd" d="M27.25 24.5C24.5 24.5 24.5 24.708 24.5 27.25V27.275C24.5 28.382 24.5 29.182 24.771 29.52C25.036 29.848 25.823 30 27.25 30C28.677 30 29.464 29.847 29.729 29.519C30 29.182 30 28.382 30 27.274C30 24.708 30 24.5 27.25 24.5ZM27.25 31.5C25.564 31.5 24.299 31.323 23.604 30.46C23 29.711 23 28.689 23 27.275L23.75 27.25H23C23 24.38 23.181 23 27.25 23C31.319 23 31.5 24.38 31.5 27.25C31.5 28.688 31.5 29.711 30.896 30.46C30.201 31.323 28.936 31.5 27.25 31.5Z" fill="#767C83"/>
</svg>
